<svg id="Layer_1" data-name="Layer 1" xmlns="http://www.w3.org/2000/svg" xmlns:xlink="http://www.w3.org/1999/xlink" viewBox="0 0 193.8 115.3"><defs><style>.cls-1{fill:url(#linear-gradient);}.cls-2{fill:url(#linear-gradient-2);}</style><linearGradient id="linear-gradient" x1="173.34" y1="66.71" x2="61.03" y2="66.71" gradientUnits="userSpaceOnUse"><stop offset="0.03" stop-color="#e700e6"/><stop offset="1" stop-color="#29abe2"/></linearGradient><linearGradient id="linear-gradient-2" x1="166.64" y1="20.1" x2="54.33" y2="20.1" xlink:href="#linear-gradient"/></defs><title>box</title><path class="cls-1" d="M199.5,63.6,160.1,11.1h-.1l-.2-.3h-.1l-.3-.3h-.1l-.5-.3h-.1l-.4-.2h-.2l-.4-.2H49.4a5.2,5.2,0,0,0,0,10.5H82.7a3.7,3.7,0,0,1,0,7.3H30.3a5.2,5.2,0,1,0,0,10.5H68.1a5.8,5.8,0,0,1,4.1,9.8,5.7,5.7,0,0,1-4,1.7H11.9a5.2,5.2,0,0,0,0,10.5H46.9a7.3,7.3,0,0,1,0,14.7H25.1a5.2,5.2,0,0,0,0,10.5H65.8A7.9,7.9,0,0,1,73.2,90h0a7.9,7.9,0,0,1-7.5,10.3H51.6a5.2,5.2,0,0,0,0,10.5H84.7a1.5,1.5,0,0,1,1.1,2.6,1.5,1.5,0,0,1-1.1.5H77.6a5.2,5.2,0,0,0,0,10.5h80.2l.4-.2h.1l.4-.2h.1l.5-.3h0l.4-.3h.1l.2-.3h.1l39.3-52.4A5.2,5.2,0,0,0,199.5,63.6Zm-78.6-44h24.6l-15.7,21L114,19.5ZM75,61l5.5-7.3h0L95.1,34.3h0l2.2-3h0l6.2-8.3,2.7,3.5h0l17,22.7L114,61.5H74.7Zm31.1,52.9-6.6-8.8-17-22.7-4.1-5.5h0L74.7,72H114l31.5,41.9Zm71-31.8L164.4,66.7l-5.6,8,12.5,15.1-15.4,20.5L123.2,66.7,155.9,23l32.8,43.7Z" transform="translate(-6.7 -9)"/><polygon class="cls-2" points="132.6 14.4 114.7 14.4 123.3 25.9 132.6 14.4"/></svg>